<?xml version="1.0" standalone="no"?><!DOCTYPE svg PUBLIC "-//W3C//DTD SVG 1.1//EN" "http://www.w3.org/Graphics/SVG/1.1/DTD/svg11.dtd"><svg t="1651656938634" class="icon" viewBox="0 0 1024 1024" version="1.1" xmlns="http://www.w3.org/2000/svg" p-id="1959" xmlns:xlink="http://www.w3.org/1999/xlink" width="64" height="64"><defs><style type="text/css">@font-face { font-family: feedback-iconfont; src: url("//at.alicdn.com/t/font_1031158_u69w8yhxdu.woff2?t=1630033759944") format("woff2"), url("//at.alicdn.com/t/font_1031158_u69w8yhxdu.woff?t=1630033759944") format("woff"), url("//at.alicdn.com/t/font_1031158_u69w8yhxdu.ttf?t=1630033759944") format("truetype"); }
</style></defs><path d="M144.205 202.496a136.678 136.678 0 1 0 273.357 0 136.678 136.678 0 1 0-273.357 0zM41.728 492.902a119.578 119.578 0 1 0 239.155 0 119.578 119.578 0 1 0-239.155 0zM144.23 749.158a102.502 102.502 0 1 0 205.005 0 102.502 102.502 0 1 0-205.005 0zM435.2 861.926a89.6 89.6 0 1 0 179.2 0 89.6 89.6 0 1 0-179.2 0z m289.843-95.666a85.427 85.427 0 1 0 170.855 0 85.427 85.427 0 1 0-170.855 0z m136.704-290.433a68.326 68.326 0 1 0 136.653 0 68.326 68.326 0 1 0-136.653 0zM759.22 219.571a51.251 51.251 0 1 0 102.502 0 51.251 51.251 0 1 0-102.503 0zM512 85.376a34.176 34.176 0 1 0 68.352 0 34.176 34.176 0 1 0-68.352 0z" p-id="1960" fill="#409eff"></path></svg>